<svg width="32" height="32" viewBox="0 0 32 32" fill="none" xmlns="http://www.w3.org/2000/svg">
<path d="M32 16C32 24.8366 24.8366 32 16 32C7.16344 32 0 24.8366 0 16C0 7.16344 7.16344 0 16 0C24.8366 0 32 7.16344 32 16Z" fill="#FFAC5C"/>
<path d="M10.1931 10.8652C10.1644 10.8652 10.1208 10.8986 10.0845 10.9714C10.0454 11.0498 10.1348 11.1456 10.1998 11.2186C10.2292 11.2515 10.2792 11.2582 10.323 11.2528C10.522 11.2282 10.5986 10.9339 10.6644 10.7535C10.6802 10.7098 10.6718 10.6528 10.643 10.6131C10.5856 10.5336 10.3541 10.5281 10.115 10.5504C9.77272 10.5822 9.80143 10.9993 9.76531 11.1343C9.74763 11.2004 9.801 11.2804 9.89499 11.3589C10.0587 11.4957 10.351 11.4719 10.5904 11.4552C10.9607 11.4294 10.8893 10.7425 10.9183 10.5681C10.9248 10.5288 10.9041 10.4951 10.8752 10.4668C10.7478 10.3421 10.4986 10.3374 10.2956 10.2979C9.98482 10.2376 9.8023 10.2585 9.6352 10.3311C9.44638 10.4132 9.38107 10.5949 9.32297 10.7578C9.27221 10.9002 9.23572 11.0775 9.31514 11.269C9.3936 11.4581 9.68394 11.606 9.93111 11.6739C10.2207 11.7535 10.5839 11.73 10.9748 11.7248C11.2679 11.7209 11.3097 11.3714 11.4039 11.2085C11.4959 11.0494 11.5708 10.8214 11.6217 10.6357C11.6621 10.4882 11.6004 10.3488 11.5353 10.2647C11.4085 10.1009 11.0651 10.09 10.8465 10.0565C10.6151 10.021 10.3245 10.0003 10.078 10C9.86343 9.99971 9.71527 10.1459 9.51945 10.2187C9.16757 10.3496 9.11997 10.5834 9.06188 10.7634C9.00715 10.9329 8.97463 11.1112 9.02511 11.3193C9.05969 11.4619 9.11954 11.5726 9.16283 11.6343C9.25517 11.7658 9.49595 11.786 9.67023 11.8145C9.86136 11.8457 10.1191 11.8986 10.323 11.938C10.5072 11.9736 10.7144 11.9997 11.1776 12C11.4254 12.0002 11.5125 11.7759 11.7009 11.6073C11.8674 11.4584 11.9476 11.2818 11.9844 11.1298C12.0316 10.9347 11.9633 10.7088 11.8904 10.5624C11.8738 10.529 11.8615 10.4951 11.8325 10.4724C11.705 10.3721 11.4994 10.3374 11.318 10.3204C11.2671 10.3148 11.2096 10.3037 11.1298 10.2979C11.0499 10.2922 10.9494 10.2922 10.8458 10.2922" stroke="black" stroke-width="2" stroke-linecap="round"/>
<path d="M23.1861 7C23.0917 7.02538 22.9021 7.12769 22.7391 7.19212C22.5763 7.25648 22.4138 7.35846 22.2508 7.46115C22.0937 7.56011 21.9254 7.62769 21.7624 7.73038C21.5995 7.83308 21.464 7.96077 21.3148 8.08288C21.1511 8.21691 20.9626 8.32 20.7858 8.41635C20.6095 8.51243 20.4197 8.64077 20.2501 8.76865C20.1485 8.84516 20.0531 8.92269 20.0122 8.98673C19.904 9.15611 20.5402 9.06385 20.9317 9.185C22.1071 9.54876 22.2493 9.67923 22.4123 9.69865C22.6396 9.72574 22.981 9.84615 23.2327 9.87808C23.4706 9.89731 23.6867 9.92308 23.8773 9.96135C23.9182 9.97423 23.9585 9.98692 24 10" stroke="black" stroke-width="2" stroke-linecap="round"/>
<path d="M23.1434 7C23.0692 7.01456 22.8469 7.13147 22.6288 7.30816C22.4644 7.44141 22.2756 7.63088 22.0765 7.79346C21.7503 8.05983 21.5798 8.24941 21.4307 8.36721C21.2869 8.48072 21.1329 8.55824 21.0267 8.63213C20.8831 8.73209 21.3549 8.76471 21.5659 8.88912C21.7332 8.98777 21.8763 9.08765 22.0932 9.22C22.4296 9.42521 22.6085 9.52882 22.7704 9.60272C22.9317 9.67641 23.13 9.79353 23.3782 9.83809C23.6767 9.92632 23.8134 9.95588 23.8877 9.96316C23.9251 9.97044 23.962 9.985 24 10" stroke="black" stroke-width="2" stroke-linecap="round"/>
<path d="M15.9079 15.5634C15.8775 15.5634 15.7704 15.5634 15.6395 15.576C15.5946 15.5804 15.6153 15.6141 15.646 15.6356C15.7921 15.738 16.0455 15.7682 16.2227 15.7768C16.4865 15.7896 16.3081 15.4612 16.2622 15.4185C16.1668 15.33 15.9089 15.3416 15.6474 15.3371C15.5849 15.336 15.5396 15.3498 15.4932 15.3753C15.4468 15.4008 15.4011 15.443 15.3928 15.4859C15.3762 15.5714 15.5073 15.6484 15.6453 15.7123C15.7957 15.7819 16.0298 15.7938 16.2373 15.7811C16.3254 15.7758 16.3686 15.7431 16.3998 15.7174C16.5273 15.612 16.5385 15.4445 16.5237 15.2865C16.5154 15.1982 16.3086 15.1708 16.1934 15.1538C16.0924 15.1388 15.8789 15.128 15.5945 15.1449C15.3958 15.1567 15.3236 15.2643 15.2622 15.3451C15.1841 15.4478 15.1694 15.5544 15.1923 15.6311C15.2429 15.8012 15.799 15.7938 16.0455 15.8151C16.277 15.835 16.4609 15.7088 16.6841 15.5853C16.8091 15.516 16.8311 15.4018 16.8235 15.2995C16.8183 15.2299 16.7545 15.1795 16.6855 15.1369C16.5564 15.0571 16.2938 15.0599 16.0933 15.0257C16.0005 15.0099 15.8018 15 15.5405 15.0085C15.3649 15.0141 15.2622 15.085 15.1777 15.1531C15.0233 15.2776 15.0005 15.4092 15 15.5372C14.9995 15.6754 15.2146 15.7508 15.3995 15.8404C15.5796 15.9278 15.8147 15.9644 16.0529 15.9943C16.1504 16.0066 16.3049 15.9987 16.4138 15.9733C16.7958 15.8844 16.8616 15.6919 16.9539 15.5385C17.1004 15.2951 16.8625 15.1798 16.7316 15.0857C16.5546 15.0428 16.4161 15.0172 16.3164 15.0044C16.2624 15 16.2015 15 16.1387 15" stroke="black" stroke-width="2" stroke-linecap="round"/>
<path d="M9 17.9004C9.02878 18.0006 9.11599 18.2019 9.1814 18.382C9.25968 18.5976 9.33401 18.7634 9.42842 18.9435C9.53242 19.1419 9.6532 19.4104 9.82064 19.6633C9.94139 19.8456 10.0892 20.1014 10.2855 20.3757C10.5149 20.6964 10.6997 20.8365 11.0191 21.1601C11.2323 21.376 11.3974 21.4991 11.6516 21.7291C11.8924 21.947 12.1962 22.1038 12.4583 22.2621C12.7364 22.4301 12.9523 22.4925 13.2576 22.6078C13.5203 22.7071 13.8096 22.7663 14.2888 22.8527C14.6345 22.915 14.8997 22.9106 15.1834 22.9464C15.4056 22.9745 15.5983 22.968 16.0956 22.9896C16.535 23.0087 17.3555 22.997 17.7996 22.9898C18.4044 22.9801 18.6358 22.9253 19.3605 22.7529C19.7954 22.6495 20.4785 22.2938 20.8524 22.0617C21.0962 21.9103 21.4116 21.5587 22.0354 20.7828C22.282 20.476 22.4294 20.2483 22.756 19.7311C23.0345 19.29 23.1419 19.0389 23.4031 18.5718C23.6737 18.0879 23.7523 17.5272 23.8544 17.1962C23.898 16.9938 23.9564 16.7075 23.9926 16.4187C24 16.3183 24 16.1615 24 16" stroke="black" stroke-width="2" stroke-linecap="round"/>
<path d="M24.3055 16C24.3926 16 24.6261 16 24.912 16.0263C25.0129 16.0355 25.0092 16.1051 24.9875 16.1716C24.8968 16.4486 24.8333 16.7014 24.7895 16.915C24.7557 17.0803 24.6723 17.2333 24.6501 17.3927C24.6272 17.5575 24.5404 17.711 24.4817 17.8705C24.4186 18.0418 24.3645 18.2548 24.2327 18.56C24.1512 18.7489 24.0276 18.9053 23.9101 19.0647C23.788 19.2305 23.5737 19.5144 23.3898 19.7415C23.2622 19.8992 23.1189 20.0598 22.943 20.2521C22.6282 20.5961 22.3721 20.8154 22.2168 21.022C22.0593 21.2317 21.8725 21.3337 21.675 21.4599C21.2672 21.7205 21.0958 21.891 20.7663 22.0505C20.4764 22.1908 20.1871 22.3289 19.938 22.4619C19.4894 22.7013 19.2485 22.688 18.9046 22.7673C18.5555 22.8477 18.2959 22.9134 17.988 22.9335C17.6932 22.9527 17.3723 22.993 16.1591 22.9999C15.6851 23.0027 15.3052 22.9141 15.0265 22.8475C14.7476 22.7807 14.5425 22.7016 14.3299 22.6419C14.1382 22.588 13.9708 22.5423 13.6851 22.4165C13.4808 22.3266 13.3111 22.2374 13.1204 22.151C12.8329 22.0207 12.6223 21.8528 12.402 21.7264C12.2134 21.6183 11.9485 21.3759 11.713 21.1958C11.4317 20.9806 11.1278 20.6729 10.8189 20.4527C10.5855 20.2864 10.3652 19.9826 10.1734 19.776C9.96314 19.5494 9.77759 19.3185 9.69667 19.1456C9.61352 18.9679 9.48467 18.7349 9.35229 18.5154C9.25145 18.3481 9.19088 18.1903 9.13216 18.0243C9.11743 17.9777 9.10292 17.9252 9.08818 17.8784C9.07345 17.8316 9.05894 17.7922 9 17.672" stroke="black" stroke-width="2" stroke-linecap="round"/>
<path d="M9.44657 17.8542C9.40561 17.9242 9.18591 18.1197 9.04689 18.338C8.90013 18.5685 9.14288 18.7805 9.16377 18.9493C9.1859 19.128 9.33568 19.2862 9.59034 19.5669C9.78847 19.7852 9.87356 20.0304 9.9772 20.2135C10.0745 20.3854 10.1905 20.6204 10.3425 20.8035C10.4589 20.9436 10.6315 21.1261 10.777 21.3442C10.9088 21.5418 11.1827 21.7161 11.3974 21.8922C11.575 22.038 11.7214 22.1662 11.9214 22.3136C12.0906 22.4384 12.2592 22.5176 12.4318 22.5808C12.6612 22.6649 12.8385 22.8404 13.0385 22.9529C13.2119 23.0504 13.3764 23.1354 13.5421 23.213C13.7133 23.2931 13.9002 23.3604 14.0799 23.4167C14.2718 23.4768 14.4935 23.529 14.6935 23.5853C14.8809 23.638 15.1273 23.6976 15.3555 23.7189C15.5341 23.7355 15.748 23.7962 16.0105 23.8381C16.2589 23.8778 16.5895 23.9083 16.838 23.9296C17.1415 23.9556 17.5552 23.9926 18.5108 23.9999C18.8823 24.0028 19.1548 23.8948 19.3962 23.8316C19.7062 23.7504 19.8722 23.6984 20.1409 23.5579C20.3339 23.4569 20.5342 23.3891 20.7477 23.305C21.1741 23.1371 21.3203 22.9542 21.486 22.8274C21.6429 22.7072 21.7754 22.5606 22.0028 22.3783C22.3298 22.1162 22.6973 21.7624 22.9755 21.4371C23.1498 21.2333 23.3609 20.9466 23.5068 20.7135C23.6219 20.5296 23.6928 20.3136 23.7689 20.1305C23.8424 19.9537 23.9683 19.7658 24.0929 19.5477C24.1924 19.3733 24.2447 19.2036 24.3343 19.0279C24.4528 18.7953 24.5343 18.5015 24.6239 18.2765C24.7052 18.0722 24.7139 17.8972 24.7551 17.7284C24.7995 17.5464 24.8239 17.3216 24.8724 17.1035C24.9107 16.9306 24.9481 16.7038 24.9965 16.4438C25.0035 16.3388 25.0035 16.1719 24.9626 16.086C24.9216 16 24.8397 16 24.7553 16" stroke="black" stroke-width="2" stroke-linecap="round"/>
<path d="M8.6061 18.1569C8.52286 18.1699 8.32834 18.2221 8.12567 18.2874C7.85643 18.3742 8.0899 18.9408 8.18047 19.0979C8.26532 19.2451 8.35511 19.3723 8.43146 19.5295C8.50787 19.6867 8.61949 19.8431 8.69646 20.0197C8.80686 20.2729 8.91231 20.4575 9.05872 20.5954C9.22912 20.7559 9.35823 21.046 9.45632 21.21C9.55049 21.3674 9.7071 21.4909 9.85351 21.648C9.99411 21.7989 10.153 21.9358 10.3553 22.1057C10.5157 22.2404 10.7244 22.3281 10.92 22.4654C11.1424 22.6216 11.3937 22.7071 11.8185 22.9164C12.0296 23.0204 12.2028 23.0869 12.3703 23.1392C12.5378 23.1916 12.7876 23.2956 12.9978 23.3421C13.1676 23.3796 13.3322 23.44 13.5204 23.4988C13.7889 23.5827 13.9873 23.5969 14.1759 23.6493C14.4132 23.7151 14.6708 23.7146 14.8383 23.7344C15.0216 23.7561 15.2422 23.793 15.5281 23.8129C15.7332 23.8271 15.9257 23.8715 16.3085 23.8913C16.5967 23.9062 16.846 23.95 17.055 23.9698C17.7469 24.0354 18.5887 23.9767 18.8121 23.9568C19.0372 23.9369 19.2856 23.8723 19.5232 23.8066C19.7477 23.7445 20.0796 23.6369 20.3598 23.5647C20.5801 23.508 20.7639 23.4015 20.9457 23.2968C21.124 23.194 21.3077 23.0484 21.5173 22.8721C21.6759 22.7386 22.0724 22.3579 22.368 22.0417C22.5393 21.8584 22.6606 21.6886 22.7587 21.525C22.8886 21.3083 23.0237 21.1394 23.1558 20.9171C23.2581 20.7452 23.3993 20.383 23.5047 20.1127C23.5959 19.8789 23.693 19.5968 23.7488 19.4065C23.8045 19.2166 23.8603 19.0342 23.9092 18.8572C23.9301 18.6544 23.9582 18.368 23.9929 18.151C24 18.1051 24 18.0534 24 18" stroke="black" stroke-width="2" stroke-linecap="round"/>
<path d="M21 9C21.0995 8.97 21.398 8.72909 21.6575 8.53091C21.9064 8.34084 22.099 8.24273 22.3573 8.12182C22.6928 7.96474 23.031 7.65364 23.2993 7.40227C23.4995 7.21227 23.6495 7.16682 23.7493 7.12909C23.7995 7.10636 23.849 7.07636 24 7" stroke="black" stroke-width="2" stroke-linecap="round"/>
<path d="M16 14.7008C16 14.6018 16.0374 14.4201 16.0816 14.3293C16.1258 14.2388 16.2072 14.1752 16.2984 14.0575C16.3368 14.0078 16.427 13.9935 16.5401 14.0025C16.606 14.0077 16.6351 14.1198 16.6978 14.2335C16.7548 14.3368 16.8423 14.4462 16.918 14.5644C16.9496 14.6733 16.9623 14.7998 16.981 14.918C16.9874 14.9453 16.9936 14.9723 17 15" stroke="black" stroke-width="2" stroke-linecap="round"/>
</svg>
