<svg width="102" height="102" viewBox="0 0 102 102" fill="none" xmlns="http://www.w3.org/2000/svg">
<path d="M101.584 50.7918C101.584 78.8433 78.8433 101.584 50.7918 101.584C22.7403 101.584 0 78.8433 0 50.7918C0 22.7403 22.7403 0 50.7918 0C78.8433 0 101.584 22.7403 101.584 50.7918Z" fill="#FFAC5C"/>
<path d="M38.3142 38.5807C38.2637 38.5807 38.1873 38.6564 38.1235 38.8215C38.0547 38.9993 38.2118 39.2167 38.326 39.3821C38.3776 39.4569 38.4655 39.472 38.5424 39.4597C38.892 39.4041 39.0266 38.7366 39.142 38.3273C39.1699 38.2283 39.155 38.0991 39.1046 38.0089C39.0037 37.8286 38.597 37.8163 38.177 37.8668C37.5758 37.939 37.6263 38.8849 37.5628 39.191C37.5318 39.3409 37.6255 39.5224 37.7906 39.7005C38.0781 40.0106 38.5917 39.9566 39.0121 39.9187C39.6625 39.8602 39.5372 38.3025 39.588 37.9069C39.5995 37.8178 39.5632 37.7414 39.5124 37.6772C39.2885 37.3944 38.8508 37.3837 38.4942 37.2942C37.9484 37.1573 37.6278 37.2048 37.3343 37.3695C37.0026 37.5557 36.8879 37.9677 36.7858 38.3372C36.6966 38.6602 36.6326 39.0623 36.7721 39.4964C36.9099 39.9254 37.4199 40.2608 37.854 40.4148C38.3628 40.5953 39.0006 40.5421 39.6874 40.5302C40.2022 40.5214 40.2756 39.7288 40.4411 39.3592C40.6026 38.9984 40.7342 38.4813 40.8237 38.0602C40.8947 37.7257 40.7862 37.4097 40.6719 37.219C40.4492 36.8473 39.846 36.8226 39.4619 36.7466C39.0556 36.6661 38.545 36.6193 38.112 36.6185C37.7352 36.6179 37.4749 36.9495 37.1309 37.1146C36.5129 37.4113 36.4292 37.9417 36.3272 38.3499C36.2311 38.7343 36.1739 39.1387 36.2626 39.6107C36.3233 39.934 36.4285 40.1851 36.5045 40.325C36.6667 40.6233 37.0897 40.669 37.3958 40.7336C37.7315 40.8044 38.1843 40.9243 38.5424 41.0137C38.866 41.0945 39.2299 41.1536 40.0436 41.1544C40.4789 41.1548 40.6318 40.646 40.9628 40.2639C41.2552 39.9261 41.3962 39.5255 41.4608 39.1807C41.5437 38.7382 41.4237 38.226 41.2957 37.8939C41.2665 37.8183 41.2448 37.7414 41.194 37.6898C40.9699 37.4623 40.6089 37.3837 40.2901 37.3451C40.2007 37.3325 40.0998 37.3072 39.9595 37.2942C39.8193 37.2812 39.6427 37.2812 39.4608 37.2812" stroke="black" stroke-width="2" stroke-linecap="round"/>
<path d="M62.3157 31.3955C62.1384 31.446 61.7822 31.6493 61.4761 31.7773C61.1702 31.9052 60.865 32.1079 60.5588 32.312C60.2638 32.5087 59.9477 32.643 59.6416 32.8471C59.3354 33.0512 59.0809 33.3049 58.8007 33.5476C58.4933 33.814 58.1392 34.0189 57.8071 34.2103C57.4758 34.4013 57.1195 34.6563 56.8008 34.9105C56.6101 35.0626 56.4308 35.2166 56.354 35.3439C56.1508 35.6805 57.3458 35.4972 58.0811 35.7379C60.2889 36.4609 60.5561 36.7202 60.8623 36.7588C61.2892 36.8126 61.9305 37.0519 62.4033 37.1154C62.85 37.1536 63.2559 37.2048 63.614 37.2808C63.6909 37.3065 63.7665 37.3317 63.8445 37.3577" stroke="black" stroke-width="2" stroke-linecap="round"/>
<path d="M62.7744 31.5483C62.6223 31.5736 62.1659 31.7761 61.7184 32.0823C61.3809 32.3131 60.9934 32.6414 60.5848 32.9231C59.9154 33.3846 59.5655 33.7131 59.2594 33.9172C58.9644 34.1138 58.6483 34.2481 58.4304 34.3762C58.1357 34.5493 59.1038 34.6059 59.5368 34.8214C59.8802 34.9923 60.174 35.1654 60.6192 35.3947C61.3095 35.7502 61.6767 35.9298 62.0088 36.0578C62.34 36.1855 62.7469 36.3884 63.2563 36.4656C63.869 36.6185 64.1495 36.6697 64.302 36.6823C64.3788 36.6949 64.4545 36.7201 64.5324 36.7461" stroke="black" stroke-width="2" stroke-linecap="round"/>
<path d="M50.0856 47.6005C50.0352 47.6005 49.8578 47.6005 49.6411 47.6383C49.5667 47.6513 49.601 47.7518 49.6518 47.816C49.8938 48.1217 50.3134 48.212 50.6069 48.2376C51.0437 48.2757 50.7483 47.2955 50.6723 47.1682C50.5143 46.9038 50.0872 46.9385 49.6541 46.9251C49.5506 46.9219 49.4757 46.963 49.3988 47.039C49.322 47.1151 49.2463 47.2412 49.2326 47.3692C49.2051 47.6246 49.4221 47.8542 49.6507 48.0449C49.8998 48.2528 50.2874 48.2884 50.631 48.2506C50.7769 48.2345 50.8485 48.1371 50.9001 48.0602C51.1113 47.7457 51.1298 47.2458 51.1053 46.7742C51.0916 46.5105 50.7491 46.4287 50.5584 46.3778C50.3911 46.3332 50.0375 46.301 49.5666 46.3515C49.2376 46.3867 49.1179 46.7077 49.0163 46.9488C48.887 47.2554 48.8626 47.5737 48.9005 47.8026C48.9844 48.3105 49.9052 48.2884 50.3134 48.3518C50.6969 48.4114 51.0014 48.0346 51.3709 47.6658C51.578 47.4592 51.6144 47.1181 51.6018 46.8128C51.5932 46.605 51.4875 46.4547 51.3732 46.3274C51.1595 46.0894 50.7246 46.0977 50.3925 45.9956C50.2389 45.9484 49.9098 45.9188 49.4772 45.944C49.1864 45.961 49.0163 46.1726 48.8764 46.3759C48.6207 46.7475 48.5829 47.1403 48.5821 47.5225C48.5813 47.9348 48.9375 48.16 49.2437 48.4275C49.5419 48.6882 49.9312 48.7975 50.3256 48.8869C50.4872 48.9235 50.743 48.8999 50.9234 48.8242C51.5559 48.5589 51.6648 47.9842 51.8177 47.5263C52.0603 46.7998 51.6664 46.4554 51.4497 46.1745C51.1565 46.0465 50.9272 45.97 50.7621 45.9318C50.6727 45.9188 50.5718 45.9188 50.4678 45.9188" stroke="black" stroke-width="2" stroke-linecap="round"/>
<path d="M37.397 51.1166C37.4474 51.2939 37.6003 51.6501 37.715 51.9688C37.8522 52.3504 37.9825 52.6438 38.148 52.9625C38.3303 53.3137 38.542 53.7888 38.8355 54.2364C39.0472 54.5591 39.3064 55.0118 39.6504 55.4972C40.0526 56.0648 40.3765 56.3128 40.9364 56.8853C41.3101 57.2674 41.5995 57.4854 42.0452 57.8924C42.4674 58.278 42.9999 58.5555 43.4593 58.8356C43.9468 59.133 44.3253 59.2434 44.8604 59.4475C45.321 59.6232 45.8281 59.7281 46.6681 59.8809C47.2741 59.9912 47.739 59.9834 48.2363 60.0468C48.6258 60.0965 48.9636 60.085 49.8353 60.1232C50.6056 60.157 52.044 60.1362 52.8225 60.1236C53.8826 60.1065 54.2882 60.0094 55.5586 59.7044C56.3211 59.5213 57.5185 58.8918 58.1739 58.481C58.6014 58.2131 59.1543 57.5909 60.2477 56.2177C60.68 55.6747 60.9383 55.2717 61.5108 54.3564C61.9991 53.5758 62.1873 53.1315 62.6452 52.3048C63.1196 51.4483 63.2575 50.4561 63.4363 49.8702C63.5128 49.5121 63.6152 49.0053 63.6786 48.4944C63.6916 48.3166 63.6916 48.0392 63.6916 47.7533" stroke="black" stroke-width="2" stroke-linecap="round"/>
<path d="M63.7681 47.7533C63.9194 47.7533 64.3253 47.7533 64.8221 47.8037C64.9975 47.8216 64.9911 47.9551 64.9532 48.0827C64.7956 48.6146 64.6853 49.1001 64.6093 49.5102C64.5504 49.8275 64.4056 50.1213 64.367 50.4275C64.3271 50.7438 64.1762 51.0386 64.0742 51.3447C63.9646 51.6737 63.8705 52.0827 63.6416 52.6686C63.4998 53.0315 63.285 53.3317 63.0809 53.6379C62.8687 53.9561 62.4961 54.5012 62.1766 54.9373C61.9548 55.24 61.7058 55.5484 61.4 55.9176C60.853 56.5782 60.4079 56.9992 60.138 57.3959C59.8641 57.7986 59.5395 57.9944 59.1963 58.2368C58.4876 58.7371 58.1896 59.0646 57.6171 59.3707C57.1132 59.6402 56.6104 59.9054 56.1774 60.1607C55.3978 60.6203 54.9792 60.5949 54.3815 60.747C53.7747 60.9014 53.3236 61.0275 52.7885 61.0661C52.276 61.1031 51.7184 61.1804 49.6098 61.1938C48.7861 61.199 48.1258 61.029 47.6416 60.901C47.1568 60.7728 46.8004 60.6209 46.4308 60.5062C46.0977 60.4029 45.8067 60.3151 45.3102 60.0736C44.9551 59.9008 44.6601 59.7296 44.3288 59.5637C43.829 59.3136 43.4631 58.9912 43.0801 58.7485C42.7525 58.5409 42.2921 58.0755 41.8827 57.7296C41.3939 57.3165 40.8657 56.7256 40.3288 56.3029C39.9231 55.9836 39.5403 55.4001 39.207 55.0034C38.8416 54.5684 38.5191 54.1252 38.3784 53.793C38.2339 53.4518 38.01 53.0046 37.7799 52.583C37.6047 52.2619 37.4994 51.9589 37.3974 51.6402C37.3718 51.5507 37.3465 51.4498 37.3209 51.36C37.2953 51.2702 37.2701 51.1945 37.1677 50.9637" stroke="black" stroke-width="2" stroke-linecap="round"/>
<path d="M36.9384 50.9636C36.8627 51.0905 36.4568 51.4452 36.2 51.8411C35.9288 52.2591 36.3773 52.6437 36.4159 52.9498C36.4568 53.274 36.7335 53.561 37.204 54.07C37.57 54.4661 37.7272 54.9109 37.9187 55.243C38.0984 55.5547 38.3127 55.981 38.5936 56.3131C38.8085 56.5672 39.1275 56.8983 39.3962 57.2938C39.6397 57.6523 40.1457 57.9684 40.5424 58.2879C40.8706 58.5522 41.1409 58.7847 41.5105 59.0523C41.8231 59.2786 42.1346 59.4222 42.4533 59.5369C42.8773 59.6894 43.2047 60.0077 43.5743 60.2118C43.8946 60.3887 44.1984 60.5428 44.5046 60.6835C44.8209 60.8288 45.1661 60.951 45.4983 61.053C45.8528 61.162 46.2622 61.2567 46.6318 61.3588C46.978 61.4544 47.4333 61.5625 47.8548 61.6011C48.1848 61.6313 48.5798 61.7414 49.0648 61.8174C49.5239 61.8894 50.1346 61.9447 50.5936 61.9833C51.1544 62.0304 51.9187 62.0976 53.684 62.1109C54.3704 62.1161 54.8737 61.9202 55.3198 61.8056C55.8925 61.6583 56.1992 61.564 56.6956 61.3091C57.0522 61.126 57.4222 61.003 57.8166 60.8505C58.6043 60.5459 58.8745 60.2141 59.1806 59.9841C59.4705 59.7662 59.7153 59.5002 60.1354 59.1696C60.7395 58.6941 61.4184 58.0525 61.9324 57.4624C62.2544 57.0927 62.6444 56.5726 62.9139 56.1499C63.1265 55.8163 63.2575 55.4245 63.3981 55.0924C63.5339 54.7718 63.7665 54.4308 63.9966 54.0353C64.1805 53.719 64.2771 53.4112 64.4426 53.0924C64.6617 52.6705 64.8122 52.1377 64.9777 51.7295C65.1279 51.359 65.1439 51.0416 65.22 50.7354C65.302 50.4053 65.3473 49.9974 65.4367 49.6019C65.5076 49.2884 65.5766 48.8769 65.666 48.4052C65.679 48.2149 65.679 47.9122 65.6033 47.7563C65.5277 47.6003 65.3763 47.6003 65.2204 47.6003" stroke="black" stroke-width="2" stroke-linecap="round"/>
<path d="M36.6326 51.3458C36.4805 51.371 36.1251 51.4727 35.7547 51.5999C35.2627 51.769 35.6894 52.873 35.8549 53.1792C36.0099 53.466 36.174 53.7138 36.3135 54.02C36.4531 54.3264 36.6571 54.6311 36.7977 54.9751C36.9995 55.4685 37.1921 55.8281 37.4597 56.0968C37.771 56.4095 38.007 56.9747 38.1862 57.2942C38.3583 57.6009 38.6445 57.8415 38.912 58.1476C39.1689 58.4416 39.4593 58.7083 39.8289 59.0393C40.1219 59.3017 40.5034 59.4727 40.8608 59.7402C41.2672 60.0445 41.7264 60.2111 42.5027 60.6189C42.8884 60.8215 43.2047 60.951 43.5109 61.053C43.817 61.1551 44.2733 61.3576 44.6574 61.4482C44.9678 61.5214 45.2686 61.6389 45.6125 61.7536C46.1031 61.9171 46.4656 61.9447 46.8103 62.0467C47.2439 62.1751 47.7146 62.174 48.0207 62.2126C48.3555 62.2548 48.7587 62.3269 49.2812 62.3655C49.656 62.3932 50.0077 62.4797 50.7071 62.5183C51.2338 62.5474 51.6894 62.6326 52.0712 62.6712C53.3356 62.799 54.8738 62.6846 55.2819 62.646C55.6932 62.6071 56.1472 62.4813 56.5814 62.3532C56.9915 62.2323 57.598 62.0226 58.1101 61.882C58.5126 61.7715 58.8485 61.564 59.1807 61.3599C59.5065 61.1597 59.8422 60.8761 60.2252 60.5325C60.5149 60.2725 61.2395 59.5308 61.7795 58.9147C62.0926 58.5575 62.3142 58.2267 62.4935 57.908C62.7309 57.4858 62.9777 57.1566 63.2192 56.7236C63.4061 56.3886 63.6641 55.6829 63.8567 55.1562C64.0233 54.7008 64.2007 54.1511 64.3028 53.7803C64.4046 53.4103 64.5065 53.0549 64.5959 52.7102C64.6341 52.315 64.6853 51.757 64.7488 51.3343C64.7618 51.2449 64.7618 51.144 64.7618 51.04" stroke="black" stroke-width="2" stroke-linecap="round"/>
<path d="M59.0983 34.7317C59.2272 34.689 59.6139 34.3456 59.9501 34.0632C60.2725 33.7923 60.5221 33.6525 60.8567 33.4802C61.2913 33.2563 61.7296 32.813 62.0771 32.4548C62.3365 32.184 62.5309 32.1192 62.6601 32.0654C62.7252 32.0331 62.7893 31.9903 62.985 31.8815" stroke="black" stroke-width="2" stroke-linecap="round"/>
<path d="M48.9292 46.3105C48.9292 46.1107 49.0379 45.744 49.1666 45.5609C49.2952 45.3781 49.532 45.2499 49.7974 45.0122C49.9092 44.9121 50.1715 44.8832 50.5006 44.9013C50.6924 44.9119 50.777 45.1379 50.9596 45.3674C51.1254 45.5759 51.3798 45.7967 51.6002 46.0352C51.6922 46.2551 51.7289 46.5103 51.7836 46.7489C51.802 46.804 51.8201 46.8584 51.8387 46.9144" stroke="black" stroke-width="2" stroke-linecap="round"/>
</svg>
