<svg width="102" height="102" viewBox="0 0 102 102" fill="none" xmlns="http://www.w3.org/2000/svg">
<circle cx="50.7918" cy="50.7918" r="50.7918" fill="#3BCD7C"/>
<path d="M42.0494 42.0135C41.9105 42.0135 41.701 41.9905 41.5732 42.0132C41.4999 42.0262 41.4684 42.1741 41.4677 42.268C41.4651 42.6234 41.9091 42.7579 42.0484 42.8277C42.1146 42.8609 42.1877 42.8515 42.2233 42.8169C42.4237 42.6224 42.4446 42.1783 42.5264 41.8519C42.5492 41.7607 42.5382 41.6434 42.4806 41.5495C42.423 41.4556 42.3078 41.3864 42.1678 41.3508C42.0278 41.3152 41.8665 41.3152 41.7258 41.3728C41.44 41.4898 41.3281 41.7335 41.2816 41.8843C41.2287 42.0563 41.1884 42.2453 41.2342 42.4541C41.3076 42.7896 41.7226 42.8745 41.8968 42.9209C42.0497 42.9617 42.2575 42.9911 42.4785 42.945C42.8517 42.8672 42.9097 42.2481 43.247 41.5739C43.3252 41.4176 43.3063 41.2943 43.2718 41.2119C43.138 40.8929 42.7491 40.7342 42.3888 40.6288C41.7286 40.4356 41.3763 40.7789 41.0728 40.9654C40.7751 41.1483 40.5606 41.4535 40.3972 41.8484C40.2116 42.297 40.3965 42.7111 40.4545 42.8504C40.586 43.1666 40.9307 43.3165 41.2219 43.4098C41.5722 43.5219 41.9084 43.526 42.6053 43.5267C43.0567 43.5272 43.305 43.1783 43.5382 42.8532C43.9346 42.3008 43.8412 41.9451 43.8535 41.3177C43.861 40.9295 43.5172 40.6183 43.2376 40.4081C42.9786 40.2135 42.6793 40.1519 42.18 40.0701C41.7119 39.9936 41.3518 40.0813 41.2125 40.1393C40.7772 40.3204 40.421 40.8948 40.2345 41.1745C40.0549 41.444 39.9783 41.7328 39.8966 42.1622C39.7865 42.7407 39.9308 43.1999 40.0237 43.3508C40.2655 43.7436 40.6514 44.0148 40.9311 44.1081C41.2316 44.2082 41.5592 44.2942 41.9314 44.4453C42.1736 44.5437 42.5592 44.5274 42.9429 44.5043C43.3294 44.4811 43.4684 44.04 43.6663 43.7139C43.8333 43.4388 44.1192 43.1559 44.3416 42.8525C44.531 42.5941 44.5395 42.2244 44.5402 41.7593C44.5408 41.368 44.3314 41.1071 44.203 40.8275C44.0702 40.5384 43.9125 40.2692 43.6681 40.0475C43.436 39.837 43.1681 39.7329 42.5885 39.6512C41.7199 39.5287 40.9803 39.6623 40.6783 39.7318C40.1984 39.8422 39.9336 40.3585 39.6759 40.6857C39.4559 40.965 39.3498 41.3138 39.3145 41.605C39.2733 41.9455 39.3023 42.2677 39.465 42.5711C39.6607 42.936 40.0928 43.223 40.3725 43.4094C40.6752 43.5959 40.9314 43.7125 41.0707 43.7589C41.1409 43.7823 41.2101 43.8053 41.4209 43.8291" stroke="black" stroke-width="2" stroke-linecap="round"/>
<path d="M60.4146 41.0359C60.3224 41.0359 60.1597 41.0359 59.9851 41.0935C59.9066 41.1194 59.9258 41.2663 59.9488 41.3602C59.9719 41.4542 60.0179 41.5233 60.0763 41.5704C60.1346 41.6176 60.2037 41.6406 60.2623 41.6179C60.5337 41.5129 60.4844 41.0149 60.5193 40.6878C60.5269 40.6171 60.4621 40.5485 60.3231 40.5129C60.1841 40.4772 59.9537 40.4772 59.7889 40.5233C59.5079 40.6019 59.3678 40.9409 59.2631 41.3239C59.2098 41.5186 59.2275 41.73 59.3081 41.8714C59.5984 42.3803 60.18 42.2691 60.7732 42.2237C61.2895 42.1842 61.0891 41.4563 61.0783 41.0258C61.0708 40.7252 60.5556 40.6183 60.1607 40.4891C59.6997 40.3383 59.321 40.5464 59.2166 40.6742C59.0079 40.9297 58.8322 41.1741 58.739 41.4538C58.6926 41.5931 58.6688 41.8257 58.7149 42.1046C58.7928 42.5763 59.4118 42.7341 59.7152 42.8396C60.0031 42.9396 60.3434 42.9213 60.623 42.9908C60.7655 43.0262 61.0179 43.0609 61.3318 43.0149C61.765 42.9513 61.7637 42.364 61.9386 42.0264C62.0812 41.7513 62.0905 41.4102 61.9631 41.0488C61.8571 40.7485 61.6031 40.4786 61.4509 40.199C61.3738 40.0574 61.1841 39.8502 60.9285 39.6292C60.4271 39.1956 59.3923 39.5918 59.0194 39.7203C58.6589 39.8445 58.3909 40.0569 58.0187 40.3711C57.7496 40.5983 57.5523 40.8948 57.436 41.1389C57.3549 41.309 57.3421 41.6155 57.3766 41.9877C57.4127 42.3762 57.8532 42.6168 58.1091 42.9667C58.3078 43.2383 58.8057 43.3389 59.2257 43.5606C59.8352 43.8823 60.4802 43.8291 60.9139 43.7366C61.3601 43.6413 61.6003 43.2244 61.9149 42.9342C62.1492 42.7181 62.1366 42.364 62.1488 41.9105C62.1583 41.5566 61.8587 41.2468 61.7302 40.8976C61.6492 40.7119 61.5326 40.5478 61.3702 40.3854C61.277 40.2922 61.1618 40.177 60.9034 40.0583" stroke="black" stroke-width="2" stroke-linecap="round"/>
<path d="M50.7781 49.206C50.6161 49.2982 50.2446 49.854 50.1262 50.2409C50.0855 50.3741 50.3584 50.4161 50.5323 50.451C50.6356 50.4718 50.7753 50.4629 50.8465 50.4053C51.1757 50.1391 51.0574 49.1194 50.9764 48.567C50.908 48.101 50.8018 47.6704 50.7205 47.6002C50.5352 47.4404 50.4066 48.0873 50.2086 48.3555C50.0126 48.6209 49.8242 48.8554 49.673 49.1931C49.5464 49.4759 49.475 49.7632 49.4398 50.0429C49.4218 50.1853 49.3815 50.553 49.4276 51.0299C49.4775 51.547 50.218 51.5802 50.7051 51.6381C50.981 51.671 51.4666 51.65 51.7504 51.6155C52.0343 51.5809 52.1034 51.5118 52.139 51.1996C52.3096 49.7051 52.0127 49.3708 51.8957 49.0674C51.7867 48.7848 51.5937 48.5091 51.4072 48.2294C51.3604 48.1592 51.3144 48.0901 51.2676 48.0199C51.2208 47.9497 51.1747 47.8806 51.1272 47.8094" stroke="black" stroke-width="2" stroke-linecap="round"/>
<path d="M39.0818 60.3814C39.2557 60.3814 39.4296 60.3814 43.3695 60.3814C47.3094 60.3814 55.01 60.3814 58.9895 60.3441C62.9689 60.3069 62.9937 60.2324 63.0686 60.194C63.1435 60.1556 63.2677 60.1556 63.3441 60.1928C63.6171 60.326 63.5711 60.6818 63.5963 60.8319C63.6088 60.9065 63.5718 60.9821 63.5218 61.0453C63.4717 61.1086 63.3972 61.1583 63.3216 61.1963C63.2459 61.2343 63.1714 61.2591 59.1709 61.2719C55.1704 61.2847 47.2461 61.2847 39.2323 61.36" stroke="black" stroke-width="2" stroke-linecap="round"/>
<path d="M39.1571 61.2095V62.4139" stroke="black" stroke-width="2" stroke-linecap="round"/>
<path d="M39.3829 62.5645H63.6216" stroke="black" stroke-width="2" stroke-linecap="round"/>
<path d="M63.7444 61.0737C63.7444 61.2581 63.7706 61.6304 63.7446 61.7898C63.7312 61.8298 63.7181 61.8693 63.6982 61.9093C63.6783 61.9493 63.652 61.9887 63.5453 62.1089" stroke="black" stroke-width="2" stroke-linecap="round"/>
</svg>
