<svg width="102" height="102" viewBox="0 0 102 102" fill="none" xmlns="http://www.w3.org/2000/svg">
<path d="M101.584 50.7918C101.584 78.8433 78.8433 101.584 50.7918 101.584C22.7403 101.584 0 78.8433 0 50.7918C0 22.7403 22.7403 0 50.7918 0C78.8433 0 101.584 22.7403 101.584 50.7918Z" fill="#7CA3C2"/>
<path d="M40.2804 53.6145C40.2 53.6145 40.0379 53.6949 39.8954 53.8972C39.8241 53.9984 39.9539 54.1798 40.0757 54.2828C40.1975 54.3858 40.3584 54.426 40.5217 54.4467C40.6849 54.4674 40.8458 54.4674 40.9286 54.1457C41.1702 53.2078 40.9311 52.3973 40.6886 52.2145C40.55 52.11 40.2853 52.1524 40.1208 52.2328C39.8119 52.3838 39.6322 52.8006 39.3885 53.1448C39.2722 53.309 39.3057 53.5292 39.366 53.673C39.6004 54.2319 40.3998 54.3041 40.9487 54.245C41.2806 54.2093 41.1333 53.3342 41.073 52.7049C41.0205 52.1568 40.161 52.1938 39.592 52.2127C39.0556 52.2305 39.1034 53.2051 38.9608 53.7948C38.9176 53.9736 38.9401 54.2188 39.0004 54.4034C39.1973 55.0061 39.9929 55.0352 40.5826 55.1777C40.7614 55.221 41.0066 55.1985 41.151 55.118C41.684 54.8212 41.7815 54.0239 42.1068 53.3933C42.3905 52.8436 42.4736 52.2766 42.4133 51.891C42.3357 51.3948 41.5013 51.4627 40.3054 51.4615C39.6298 51.4608 39.3081 52.3522 38.9614 52.9827C38.8252 53.2305 38.8183 53.5718 38.8585 53.9368C38.9191 54.4872 39.6687 54.6282 40.1768 54.8524C40.7886 55.1223 41.2539 55.1168 41.5171 55.1777C41.6575 55.2102 41.8205 55.1985 41.9034 54.9371C41.9862 54.6757 41.9862 54.153 41.9661 53.8234C41.946 53.4939 41.9058 53.3732 41.8644 53.0053" stroke="black" stroke-width="2" stroke-linecap="round"/>
<path d="M62.3242 52.6402C62.1758 52.6402 62.0005 52.6402 61.8136 52.6649C61.6368 52.6883 61.5255 52.8642 61.463 53.026C61.431 53.1087 61.4746 53.2126 61.5244 53.2882C61.6213 53.4354 61.9226 53.4643 62.2347 53.4272C62.5964 53.3842 62.474 52.6671 62.4246 52.3304C62.3869 52.0734 62.1002 52.0161 61.9136 51.9786C61.8027 51.9564 61.6529 51.9659 61.5518 52.003C61.2268 52.1221 61.127 52.7121 60.9138 53.1009C60.8192 53.2735 60.8258 53.4883 60.8999 53.6752C61.0921 54.1594 61.7473 54.0876 62.1605 54.1509C62.2484 54.1644 62.3227 54.188 62.3856 54.1637C63.0666 53.9002 63.2727 52.3929 63.348 52.0419C63.3638 51.9683 63.3236 51.8925 63.2614 51.8419C62.9823 51.6149 62.6254 51.6168 62.0766 51.5789C61.8732 51.5649 61.6267 51.5164 61.3274 51.5411C60.9251 51.5743 60.6774 51.9899 60.3897 52.3266C60.144 52.6143 60.0271 52.9384 60.0264 54.1712C60.0262 54.4387 60.1005 54.5117 60.1631 54.5746C60.4152 54.8282 60.7494 54.9372 61.2105 55.2362C61.6096 55.4949 62.1474 55.3875 62.4841 55.3253C62.9315 55.2427 63.2712 54.7394 63.5843 54.4645C63.9856 54.1122 63.8226 52.9728 63.7604 52.3169C63.7393 52.0939 63.6982 51.8917 63.5862 51.7546C63.4495 51.6422 63.2989 51.5666 63.1247 51.5291C63.0247 51.5164 62.9011 51.5164 62.7737 51.5164" stroke="black" stroke-width="2" stroke-linecap="round"/>
<path d="M51.2359 61.7804C51.2112 61.9295 51.1115 62.3274 50.9493 62.8773C50.8248 63.2995 50.7864 65.2837 50.9478 66.412C50.9729 66.5872 51.3588 66.7731 51.7079 67.0852C52.4598 67.7572 54.0821 67.2249 54.2563 67.1256C54.5159 66.9777 54.6321 66.7259 54.6695 66.4405C54.8125 65.351 54.1084 64.8537 53.7225 64.3304C53.1518 63.5563 53.2842 62.9312 53.1097 62.3569C52.9922 61.9704 52.7598 61.7812 52.6354 61.6564C52.5017 61.5223 52.2114 61.5557 51.9866 61.6051C51.5784 61.6949 51.7604 63.4422 51.8847 64.5252C51.9393 65.0008 51.9851 65.3002 52.0222 65.5621C52.0528 65.7781 52.3335 65.8756 52.5579 65.9629C52.731 66.0302 53.1059 66.0509 53.506 66.0015C53.9691 65.9442 52.9111 64.584 52.8463 63.8426C52.8069 63.3912 52.9846 62.9312 52.8969 62.5933C52.8747 62.5076 52.8842 62.4068 52.946 62.3682C53.0078 62.3296 53.1314 62.3543 53.2322 62.4041C53.6286 62.6001 53.7577 63.102 53.8578 63.589C53.9076 63.8752 53.9578 64.1022 53.9952 64.5731C54.008 64.9698 54.008 65.6868 54.008 66.4255" stroke="black" stroke-width="2" stroke-linecap="round"/>
<path d="M44.9426 80.2109C45.0423 80.112 45.2408 79.6146 45.4041 79.2257C45.5622 78.8494 45.8402 78.6136 46.165 78.3143C46.5945 77.9185 46.8891 77.7146 47.1269 77.4524C47.4175 77.132 47.938 76.9159 48.238 76.7526C48.5378 76.5894 48.837 76.4409 49.1371 76.2409C49.4371 76.0409 49.736 75.891 50.0361 75.791C50.3882 75.6736 51.0322 75.5164 51.5341 75.4288C51.93 75.3596 53.9646 75.3411 55.2052 75.4156C55.593 75.4389 56.0773 75.6648 56.5164 75.815C57.0558 75.9995 57.8724 76.5114 58.4272 76.7766C58.7463 76.9291 59.1745 77.361 59.5387 77.7374C59.7944 78.0018 59.9013 78.3364 60.1257 78.6365C60.1762 78.7118 60.201 78.7859 60.2508 78.8489C60.3006 78.9118 60.3748 78.9613 60.5261 79.0122" stroke="black" stroke-width="2" stroke-linecap="round"/>
<path d="M44.7178 80.5856C44.8669 80.6104 45.1658 80.71 45.4288 80.7482C45.7798 80.7992 45.7906 80.0627 45.9409 79.775C46.1004 79.4694 46.4394 79.3375 46.7395 79.2127C47.1681 79.0345 47.5633 78.6392 47.8633 78.4759C48.174 78.3068 48.759 78.0893 49.2242 77.9016C49.6054 77.7478 49.9607 77.6143 50.7582 77.2655C51.1943 77.0748 51.6584 77.0149 52.1941 76.8902C53.8706 76.4998 54.9549 76.7392 55.3674 76.777C55.8604 76.8223 56.254 76.964 56.6286 77.064C57.004 77.1642 57.3524 77.3131 57.6903 77.4633C58.1115 77.6506 58.4267 77.863 58.8013 78.0998C59.1661 78.3303 59.4756 78.5613 59.7757 78.7868C59.851 78.837 59.9252 78.8864 60.0005 78.9366C60.0757 78.9868 60.1499 79.0363 60.3762 79.2371" stroke="black" stroke-width="2" stroke-linecap="round"/>
<path d="M45.7667 81.1101C45.9158 81.0113 46.3136 80.6621 46.7268 80.2999C47.0466 80.0196 47.3386 79.8125 47.651 79.5627C47.9935 79.2887 48.6107 79.1143 48.9995 78.9255C49.4767 78.6938 50.184 78.5134 50.7092 78.3887C51.5118 78.198 52.2054 78.0894 52.907 78.026C53.3107 77.9896 53.7068 77.914 54.6534 77.9009C55.2586 77.8925 55.8525 78.0129 56.5527 78.1628C57.1426 78.289 57.5517 78.3126 57.9773 78.4126C58.3787 78.507 58.8748 78.7112 59.4379 78.9243C59.7713 79.0506 60.0751 79.1862 60.3751 79.324C60.4504 79.3615 60.5246 79.4109 60.5999 79.4611C60.6752 79.5113 60.7493 79.5608 60.9007 79.6117" stroke="black" stroke-width="2" stroke-linecap="round"/>
<path d="M59.4052 58.3971C59.4052 58.5444 59.4471 58.8403 59.5423 59.1473C59.6308 59.4326 59.8064 59.6657 59.9969 59.92C60.2156 60.2119 60.5886 60.2587 60.875 60.365C61.1738 60.476 61.4356 60.5342 62.4277 60.5454C62.844 60.55 63.1283 60.2815 63.3515 60.0593C63.5754 59.8364 63.8902 59.6466 64.261 59.3085C64.336 59.2231 64.3779 59.1603 64.4204 59.0965C64.4629 59.0327 64.5049 58.9698 64.548 58.8415" stroke="#4D6C80" stroke-width="2" stroke-linecap="round"/>
<path d="M37.5637 59.7305C37.6901 59.7724 37.9434 59.9413 38.1977 60.0476C38.445 60.151 38.7472 60.2168 39.2745 60.2911C40.807 60.507 41.2018 60.1965 41.6574 60.1644C41.9441 60.0695 42.1345 59.9635 42.2612 59.9108C42.325 59.879 42.3879 59.8371 42.5161 59.7305" stroke="#4D6C80" stroke-width="2" stroke-linecap="round"/>
<path d="M37.3098 60.048C37.3727 60.1534 37.7517 60.4899 38.0708 60.7035C38.3349 60.8804 38.5784 60.9788 38.8327 61.1162C39.0956 61.2584 39.4038 61.3597 39.7841 61.4867C40.4087 61.6953 40.779 61.5718 41.1603 61.5086C41.4648 61.4582 41.753 61.3394 42.0178 61.1915C42.3041 61.001 42.4521 60.7896 42.5578 60.6312C42.6006 60.5565 42.6216 60.4937 42.6432 60.3019" stroke="#4D6C80" stroke-width="2" stroke-linecap="round"/>
<path d="M60.2305 59.1589C60.3568 59.1799 60.6102 59.2643 60.8644 59.3491C61.1187 59.4339 61.3721 59.5183 62.3114 59.5504C62.7717 59.5661 63.1498 59.5615 63.4041 59.424C63.5308 59.371 63.7213 59.3494 63.9432 59.3389C64.0394 59.3285 64.1022 59.3075 64.2305 59.2859" stroke="#4D6C80" stroke-width="2" stroke-linecap="round"/>
</svg>
